<?xml version="1.0" standalone="no"?>
<!DOCTYPE svg PUBLIC "-//W3C//DTD SVG 20010904//EN"
 "http://www.w3.org/TR/2001/REC-SVG-20010904/DTD/svg10.dtd">
<svg version="1.0" xmlns="http://www.w3.org/2000/svg"
  width="16" height="16" viewBox="0 0 16 16"
 preserveAspectRatio="xMidYMid meet">

<g transform="translate(0.000000,120.000000) scale(0.100000,-0.100000)"
fill="currentColor" stroke="none">
<path d="M382 1050 c-62 -28 -136 -109 -161 -175 -67 -180 31 -384 210 -435
l26 -8 0 129 c0 124 -9 158 -22 81 -13 -77 -14 -77 -47 -45 -65 61 -86 167
-49 249 16 35 93 114 111 114 4 0 8 25 9 55 2 64 -6 67 -77 35z"/>
<path d="M420 258 c0 -150 6 -168 59 -168 47 0 61 27 61 113 0 74 1 77 24 77
12 0 37 5 55 11 29 10 31 14 31 57 l0 47 -115 0 -115 0 0 -137z"/>
</g>
</svg>
