<?xml version="1.0" standalone="no"?>
<!DOCTYPE svg PUBLIC "-//W3C//DTD SVG 20010904//EN"
 "http://www.w3.org/TR/2001/REC-SVG-20010904/DTD/svg10.dtd">
<svg version="1.0" xmlns="http://www.w3.org/2000/svg"
 width="495.000000pt" height="495.000000pt" viewBox="0 0 495.000000 495.000000"
 preserveAspectRatio="xMidYMid meet">
<metadata>
Created by potrace 1.14, written by Peter Selinger 2001-2017
</metadata>
<g transform="translate(0.000000,495.000000) scale(0.100000,-0.100000)"
fill="#000000" stroke="none">
<path d="M2173 4510 c-2 -3 -46 -8 -96 -13 -132 -10 -141 -11 -152 -18 -5 -3
-22 -5 -37 -4 -16 1 -28 -1 -28 -5 0 -4 -25 -12 -56 -19 -30 -7 -67 -19 -82
-26 -28 -14 -83 -38 -92 -40 -27 -6 -50 -18 -50 -25 0 -5 -6 -7 -14 -4 -8 3
-22 -3 -32 -13 -11 -10 -37 -27 -59 -38 -22 -11 -44 -25 -48 -32 -4 -7 -12
-13 -18 -13 -5 0 -15 -4 -22 -10 -137 -110 -214 -185 -282 -270 -19 -25 -41
-52 -48 -60 -18 -22 -77 -121 -77 -130 0 -5 -3 -10 -7 -12 -7 -3 -55 -95 -57
-108 -1 -5 -23 -62 -36 -95 -9 -21 -34 -96 -35 -105 0 -3 -3 -9 -5 -15 -3 -5
-5 -21 -5 -35 0 -14 -3 -27 -7 -30 -4 -3 -10 -39 -14 -80 -3 -41 -8 -82 -11
-90 -9 -24 -9 -201 -1 -207 5 -2 8 -33 8 -68 0 -35 4 -66 10 -70 5 -3 7 -12 3
-20 -3 -8 -2 -23 3 -32 4 -10 8 -25 9 -33 1 -8 4 -22 7 -30 5 -13 28 -92 34
-112 1 -5 3 -10 4 -13 1 -3 3 -8 5 -12 1 -5 7 -21 14 -38 17 -44 23 -60 20
-60 -1 0 10 -19 24 -42 15 -24 24 -43 20 -43 -5 0 0 -5 10 -11 9 -5 17 -16 17
-23 0 -7 13 -30 30 -52 16 -21 30 -43 30 -47 0 -5 6 -15 13 -23 6 -7 39 -47
72 -87 33 -40 95 -102 138 -137 42 -36 88 -75 102 -88 14 -13 25 -19 25 -15 0
4 4 4 8 -2 9 -13 59 -46 97 -65 17 -8 33 -19 37 -25 4 -5 8 -6 8 -1 0 5 7 3
15 -4 8 -7 15 -10 15 -6 0 3 8 -1 18 -9 9 -8 19 -14 22 -13 3 2 17 -4 30 -13
21 -12 46 -22 120 -44 3 -1 13 -5 23 -8 43 -17 53 -20 62 -22 6 -1 15 -3 20
-5 6 -1 22 -1 38 0 15 1 27 -3 27 -8 0 -5 15 -8 33 -7 17 2 37 -1 43 -6 5 -4
95 -6 200 -4 229 5 254 7 254 18 0 5 11 7 25 5 14 -3 25 -2 25 2 0 4 21 11 48
15 26 4 53 12 60 17 6 6 12 7 12 3 0 -4 7 -2 15 5 9 7 18 10 22 7 3 -4 19 3
35 14 16 12 32 19 35 15 6 -5 55 18 83 41 8 6 17 11 20 11 13 0 60 26 60 34 0
5 5 6 10 3 6 -3 13 0 16 8 3 9 16 18 30 21 13 4 33 14 43 24 31 30 71 62 77
62 7 0 196 192 231 234 12 14 24 35 28 45 3 10 14 26 25 36 11 10 20 24 20 32
0 7 3 13 8 13 4 0 23 32 42 70 19 39 38 70 41 70 4 0 5 9 2 20 -3 11 0 20 6
20 6 0 10 3 9 8 -1 4 4 20 10 35 7 16 12 33 12 38 0 5 4 9 8 9 4 0 9 10 9 23
2 27 7 49 14 62 4 6 9 26 13 45 3 19 9 46 12 60 3 14 8 39 11 55 8 44 12 358
5 370 -4 6 -7 28 -8 50 -1 22 -3 41 -4 43 -3 2 -3 5 -13 52 l-7 36 -463 -2
c-254 -1 -462 -2 -462 -4 0 -1 -13 -4 -30 -5 -16 -2 -59 -10 -95 -19 -36 -10
-69 -18 -75 -19 -5 -2 -20 -8 -32 -15 -12 -7 -29 -12 -37 -12 -9 0 -16 -5 -16
-11 0 -5 -4 -8 -9 -4 -5 3 -12 1 -16 -5 -4 -6 -11 -8 -16 -5 -5 4 -9 2 -9 -4
0 -5 -10 -13 -22 -16 -25 -8 -101 -56 -106 -67 -2 -5 -9 -8 -15 -8 -13 0 -25
-11 -127 -111 -73 -72 -90 -92 -141 -169 -32 -47 -100 -180 -105 -202 -1 -5
-2 -9 -4 -10 -1 -2 -3 -10 -5 -18 -2 -8 -12 -41 -23 -72 -11 -32 -18 -69 -17
-83 2 -14 -1 -25 -5 -25 -5 0 -8 -27 -7 -61 1 -33 -1 -63 -5 -65 -5 -3 -8 -14
-8 -25 0 -18 -6 -16 -47 18 -78 63 -173 166 -173 189 0 6 -7 15 -16 18 -8 3
-13 10 -10 14 3 5 -5 19 -18 33 -12 13 -21 30 -18 37 2 6 -2 12 -8 12 -7 0
-10 6 -7 14 3 8 -1 20 -9 26 -8 7 -14 23 -14 36 0 13 -5 24 -11 24 -5 0 -7 5
-4 10 4 6 2 16 -3 23 -5 7 -10 19 -10 27 -3 31 -15 85 -21 95 -13 20 0 282 16
325 3 8 7 22 9 30 11 58 89 230 104 230 6 0 10 6 10 13 0 8 9 22 20 32 10 9
18 20 17 24 -3 11 132 140 176 168 23 15 45 32 49 38 5 7 8 7 8 0 0 -5 5 -2
10 7 6 9 24 19 40 23 17 4 28 11 24 16 -3 5 3 9 13 9 10 0 38 9 62 20 24 11
55 22 70 25 14 2 49 9 76 15 66 14 257 14 320 0 75 -17 80 -18 83 -20 1 -2 5
-3 10 -4 26 -6 89 -30 100 -39 6 -5 12 -6 12 -1 0 5 6 2 13 -6 13 -17 67 -45
80 -42 4 1 10 -5 13 -13 4 -8 13 -15 22 -15 22 0 230 -214 238 -244 3 -14 14
-26 23 -27 23 0 489 0 528 0 42 1 45 21 11 93 -16 32 -28 62 -28 68 0 5 -4 10
-8 10 -5 0 -9 6 -9 13 0 6 -22 47 -49 90 -27 43 -54 87 -60 98 -6 11 -21 27
-33 35 -11 8 -21 20 -21 26 0 16 -85 105 -169 178 -28 25 -62 55 -75 67 -13
12 -26 20 -28 17 -3 -2 -15 7 -28 21 -13 14 -32 25 -42 25 -10 0 -18 4 -18 10
0 5 -27 21 -60 37 -33 15 -60 31 -60 36 0 4 -4 5 -10 2 -5 -3 -10 -2 -10 4 0
6 -7 8 -15 5 -8 -4 -15 -1 -15 6 0 7 -7 10 -15 6 -8 -3 -15 -2 -15 3 0 10 -38
24 -57 22 -7 -1 -13 3 -13 10 0 6 -7 9 -15 6 -8 -4 -17 -2 -19 2 -6 9 -65 25
-80 22 -4 -1 -13 2 -20 7 -6 5 -19 8 -28 7 -10 -2 -18 1 -18 5 0 5 -17 9 -37
10 -69 1 -168 11 -183 17 -19 8 -80 10 -87 3z m868 -1614 c-5 -6 -14 -35 -22
-63 -7 -29 -17 -53 -22 -53 -5 0 -7 -7 -3 -15 3 -8 1 -15 -3 -15 -9 0 -35 -59
-32 -72 0 -5 -3 -8 -8 -8 -5 0 -14 -13 -21 -30 -7 -16 -17 -30 -22 -30 -5 0
-7 -4 -4 -9 3 -5 -24 -39 -59 -77 -36 -38 -65 -72 -65 -76 0 -5 -5 -8 -11 -8
-6 0 -26 -12 -45 -26 -36 -28 -80 -55 -124 -76 -14 -7 -27 -16 -30 -19 -3 -4
-24 -12 -47 -18 -24 -7 -43 -15 -43 -19 0 -8 -10 -10 -67 -14 -18 -2 -33 -6
-33 -9 0 -4 -15 -8 -32 -8 -18 -1 -46 -3 -63 -4 l-30 -2 0 70 c1 59 7 114 15
135 1 3 2 9 1 14 -1 5 5 25 15 45 46 101 59 126 77 144 10 10 17 21 14 23 -3
3 18 26 47 52 28 26 53 50 54 55 2 4 10 7 18 7 8 0 14 5 14 11 0 5 5 7 10 4 6
-3 13 0 16 9 3 8 19 18 35 21 16 4 29 10 29 14 0 5 21 14 48 21 26 7 52 17 58
21 5 5 20 6 32 2 12 -3 22 -1 22 4 0 5 64 9 145 9 102 0 142 -3 136 -10z"/>
<path d="M3654 3439 c-2 -4 0 -10 5 -13 5 -4 8 -18 5 -32 -3 -14 -1 -30 3 -37
4 -7 8 -23 9 -37 0 -14 4 -32 7 -40 12 -27 -3 -408 -17 -441 -4 -9 -6 -20 -5
-25 1 -5 0 -16 -3 -24 -12 -35 -29 -107 -31 -127 0 -13 -4 -23 -8 -23 -8 0
-22 -40 -20 -57 1 -7 -3 -13 -9 -13 -6 0 -9 -4 -6 -9 3 -4 -8 -34 -24 -66 -16
-32 -27 -62 -24 -66 3 -5 0 -9 -6 -9 -9 0 -17 -14 -31 -55 -2 -5 -13 -20 -24
-33 -11 -13 -20 -27 -20 -31 0 -4 -7 -15 -15 -24 -8 -9 -35 -44 -60 -78 -42
-57 -230 -255 -230 -243 0 3 -22 -13 -49 -35 -27 -23 -53 -41 -59 -41 -5 0
-13 -7 -16 -16 -3 -8 -10 -13 -15 -9 -5 3 -17 -5 -25 -17 -9 -12 -16 -19 -16
-15 0 3 -18 -3 -40 -14 -22 -12 -40 -25 -40 -31 0 -5 -8 -7 -19 -3 -12 3 -21
0 -25 -10 -3 -8 -11 -15 -18 -15 -7 0 -30 -9 -51 -20 -20 -11 -40 -19 -44 -18
-5 0 -21 -4 -38 -11 -16 -7 -34 -14 -40 -15 -5 -1 -16 -5 -22 -9 -7 -5 -17 -5
-23 -2 -5 3 -10 2 -10 -3 0 -10 -82 -28 -112 -24 -10 1 -18 -2 -18 -7 0 -4
-16 -7 -36 -6 -19 1 -37 -2 -40 -7 -7 -11 -371 -10 -378 1 -3 5 -24 7 -46 6
-22 -2 -40 1 -40 5 0 4 -12 7 -27 7 -16 0 -35 3 -43 6 -26 9 -75 20 -83 18 -4
-1 -18 5 -30 14 -12 8 -25 15 -29 15 -5 0 -8 -258 -8 -572 l0 -573 26 -55 c27
-59 60 -100 80 -100 6 0 14 -7 18 -15 3 -8 9 -14 13 -13 4 0 21 -4 37 -11 39
-16 154 -16 191 -1 17 7 33 13 37 12 10 -2 88 72 88 84 0 6 9 20 19 31 11 11
18 29 17 39 -2 11 0 24 5 30 5 6 10 138 11 294 l3 283 70 3 c118 6 149 9 163
18 7 4 15 6 18 4 2 -3 35 1 72 9 37 7 76 15 87 17 23 5 123 34 145 43 8 4 17
7 20 8 30 7 88 30 98 38 6 5 12 7 12 4 0 -4 24 6 53 21 28 14 55 27 60 28 4 1
9 3 12 4 6 3 12 5 43 15 12 4 22 11 22 17 0 5 19 18 43 29 60 29 109 57 116
66 3 4 34 27 68 51 74 51 99 71 169 138 29 28 65 59 80 69 14 9 24 19 21 21
-3 3 17 29 44 57 79 86 94 102 89 103 -3 1 12 20 33 43 20 22 37 48 37 56 0 9
7 18 15 21 8 4 15 11 15 16 0 5 9 23 21 39 11 16 17 29 12 29 -4 0 -3 4 3 8
11 7 45 67 44 77 0 3 6 13 15 21 8 9 15 22 15 30 0 8 5 14 11 14 5 0 8 4 4 9
-3 5 -1 12 5 16 6 4 8 11 5 16 -4 5 -1 9 4 9 6 0 11 4 11 9 0 5 5 22 12 38 6
15 12 30 13 33 1 3 7 18 13 33 7 16 12 35 12 43 0 8 4 14 9 14 5 0 8 6 8 13
-1 20 27 107 35 107 4 0 5 7 2 15 -4 8 -2 21 4 28 5 6 9 24 7 40 -2 15 1 27 5
27 5 0 9 8 9 18 0 24 12 104 18 122 18 50 19 508 1 526 -5 4 -8 24 -8 44 l0
36 -246 0 c-135 0 -247 -4 -250 -7z"/>
</g>
</svg>
